<mxfile host="app.diagrams.net" agent="Mozilla/5.0 (Windows NT 10.0; Win64; x64) AppleWebKit/537.36 (KHTML, like Gecko) Chrome/134.0.0.0 Safari/537.36 Edg/134.0.0.0" version="26.2.5">
  <diagram name="Страница — 1" id="MZ2IF1LrdfntuzUnCBrK">
    <mxGraphModel dx="1420" dy="794" grid="1" gridSize="10" guides="1" tooltips="1" connect="1" arrows="1" fold="1" page="1" pageScale="1" pageWidth="827" pageHeight="1169" math="0" shadow="0">
      <root>
        <mxCell id="0" />
        <mxCell id="1" parent="0" />
        <mxCell id="p8ZuzaAaolSNh7NrDxlR-22" value="" style="ellipse;whiteSpace=wrap;html=1;aspect=fixed;fillColor=none;" vertex="1" parent="1">
          <mxGeometry x="880" y="230" width="60" height="60" as="geometry" />
        </mxCell>
        <mxCell id="p8ZuzaAaolSNh7NrDxlR-1" value="" style="shape=image;verticalLabelPosition=bottom;labelBackgroundColor=default;verticalAlign=top;aspect=fixed;imageAspect=0;image=data:image/png,iVBORw0KGgoAAAANSUhEUgAAApMAAAB1CAYAAAASlGpLAAAAAXNSR0IArs4c6QAAAARnQU1BAACxjwv8YQUAAAAJcEhZcwAADsMAAA7DAcdvqGQAACabSURBVHhe7Z29jhTH94aH/2UghJDxNRAgwBIBcAEEhogICcfIJIQkWMQgOSICB1yAIUAyaxFwDWAhhLgN/vM08+7v3UP1x/R+MLv7PlJ5p7u+zjlVdep09Zg58XXJIoQQQgghhBn83+pvCCGEEEIIa5NgMoQQQgghzCbBZAghhBBCmE2CyRBCCCGEMJsEkyGEEEIIYTYJJkMIIYQQwmwSTIYQQgghhNkkmAwhhBBCCLNJMBlCCCGEEGaTYDKEEEIIIcwmwWQIIYQQQphNgskQQgghhDCbBJMhhBBCCGE2CSZDCCGEEMJsEkyGEEIIIYTZJJgMIYQQQgizSTAZQgghhBBmk2AyhBBCCCHMJsFkCCGEEEKYTYLJEEIIIYQwmwSTIYQQQghhNgkmQwghhBDCbBJMhhBCCCGE2SSYDCGEEEIIs0kwGUIIIYQQZnNogsl///13ce3atdXV95w4cWL1KYRwlPnrr7+2fcF///3XrX3+biLxWyGE48CBBpM4VpznkHOtqM7bt28XP/300+Lnn3/eUZ+8P/74Y3H27NnFb7/99p1zVn2ldfoOIWwev/766+L9+/fdembd37lzp/MNm8Ru/VYIIRwmDiyYxJE+ePBg8fDhw9WdaVy4cGHx9evXxevXrxdPnjxZvHr1avH333+vchddHnz48GFx6dKl7WvgBOPixYuLra2t7j7p8uXLnRMPIRxeCCa1ph8/fry6uznsxm+FEMJh48CCSRypO9Op6AmfIJATiCtXrnz3hA884b9582bHE/6NGzcWz58/7xy7+P3337skKK/E6YHQ6zOlGoDqNEFpqC5BraCcX0s/wWfuCfr1tutJq7flUM/LKel1IG3WtvxVYdWhnuh6+622lGS3Ko/LTdueJ/3rfZev4mUZG6BPl1s6eTt1HIX0cSirtsHr+hihG/26zrWeX0su6d2yZUv3alOSqG24vWs90dIZPVxW9KRMy4beB5/VPok+nZaO0h+qjOpPtqr9+zjXvlWnJurVsiS1vY49lKSn6s7xWyGEcNjY+O9M6gn//PnznZPnRKI+4RMc8oTPCYWe8LUxnTt3rvvbAgfOSSl1SGwMcviPHj3q2uQ+J5v37t3r7gtkUV0CVocNQm2SR1A7B3TwfunTT1qRj7a1+VWuXr26LQdlK7QlHbXhAe2hA7KrPnbXJsoGjFzKu3379uLz58/b1yAZGRs2WC9PHnJ78ODjwJhrHHSPfGRqIblUFvn7bOIgFydG3odv+ENQ98yZM9t1dU+8fPly8fHjxy4PG3M65cGWI7uLOsZDMG6Sgc+yBW8BdJ9xvH//fncfGSQXiTniwZGDPujhIA913r17t7qz6HTj3qdPn7pr+mB8Nbf4y/i7/swXXydOnV/IX20kKEv/gjnlfVP3xYsX2235vNaJpq8T5sBUe1AOuVSXdsRcvxVCCIeRQ/M/4OCch042+5xx33ep2ITYWPyUkg1XmwUOXnW18TlsDqdPn15d7cRlUTA7JbipEFQQIAg2RTYsnbQiH9fcnwObqnS8e/dut7Ehp/rhu2mC4ITAC54+fdptugIbetnKn3/+2fUlkJ/2+T5ZC2RgHPz1pcbJA1BBMKFgCZgnfePuIBd6ievXr3f9Thkr5PG5Q1BBkCaYL5IfWRhHTqAqCkj2CgJc8LVCkKeTU8bJ7crJWUtfPcj4/FO5W7dudXMAKMdYoqP01/zQGLT0d5kqdX4hM3Ozjj3yEDi6jM+ePeuu1Td1fZymoLpOyx5TmOu3QgjhMHFogsn9oG5mJ0+e7P5q09QrLDYsbZ6Cza3v1JNAlXqkGoQC7SmfgLEFJ2RsqHyfyiHYUV2Sn5TshrqB1utTp051Oou+QLoP6ju078FXiyoDtiSwb6GxWxcfi9ZYua39BAw0P1p5FQV5DvOEAN2DOyDAYF7Qbksmh35dBg+cdJ8gyPtgbnleC52OOl++fOnkIUBT0E3wRnCJfh6U1vlR8xl7Atk+kEsykloQhPOQUm3bsvUQvqbolwerSssesqnq7tVaDCGEw8aRDSZ1eseG3Qeniw6bJSiIIZ+NnSCKzUQnIzrVrMEOUMZfs3kAJvSajVQ3KOC0jL5bJyqcAqmu0ronLy18o4d6XU9n9UpzKjUIpP2xTb/KgC1rUCo0duviY6Hk4+r3/VSKgMxfcY6dWNXAGd1aDynA61RsTbut+ePQr2RAF39A0n3mGO3Rp17hKs9PAAW60a7WkGAM1T7zkFfdBLA8VBE8+nqq8wP93a7U4xVwH8glGZVcHvRAltaJ+NhDSsXXlGzl9NkDe6IHdahLOyGEcBzZiGCSzbPv9GE3sCGxYXtQQiBIf3p1xmdBEKeggA2kD16p+uvRFto457yC5oRDr5QdvYatr/vmgm0E3xHV60r144E4OvPdSOBEyU+0sOFQ0E497wv5aZ9+WiADsvh31xRg1Q0dKOvjwdjVQLQFcvnr8XXxYJigwvG5paDj5s2b3TWgP/OzpU99/T4VD+CG5q8HdfRVISisp6VA+6rLaSRjqjnjJ9fkMT80BlV/7EK9lu6g+kNgv9brY07y6Ut9a71PpXXy3WeP+rWTEEI4tiyfqA+EpdPly0E7Evdgual21/vB8+fPm33CcvPbkbcMJFc53+chI/i9VqIe7ehan7kPy4Cok0lsbW11+YLPns9n6giV98S9CvK2dHU5ZHclp/Yj/YXr6P0A96pMXp4kOYD6tX1ARpV3G7Twsmqr6udJNq5yqZ86LkBZEsieSp6nMfO2XT/u99mMunwWddycln4qV8fP55Tfd1lUx/tyvfjreni7Vc4qm+YDbfj9mtR+SzdQP2oPKOv29Lp13nDttpC9PantMXuQ5231zeMQQjjqnOA/S6cYJsIJ6nJz2XG6I4byNg1eEXL61XpNeNTh1I7Tr/3SndMwTjz9tW/4BqfNnOi2vpoxlBdCCGFzOdb/A04IIYQQQtgdOZk8phznk8n9JieTIYQQjhMJJkMIIYQQwmzymjuEEEIIIcwmwWQIIYQQQphNgskQQgghhDCbBJMhhBBCCGE2CSZDCCGEEMJsEkyGEEIIIYTZJJgMIYQQQgizSTAZQgghhBBmk2AyhBBCCCHMJsFkCCGEEEKYTYLJEEIIIYQwmwSTIYQQQghhNgkmQwghhBDCbBJMhhBCCCGE2SSYDCGEEEIIs0kwGUIIIYQQZrOxweS1a9cW//777+oqtDhx4sTq09Hhv//+26HXzz//vPjrr79WVyGEEELYNDYumCSIJMHbt2+7wKIGldzz9Ntvv61yjgfo/McffyzOnj3b6c51C4IwgrEK9qX+JvLTTz8t7ty5sz228Ouvv3Z/QwghhLB5bFww+ffffy/u37+/ePny5eLjx4+Lr1+/Li5cuNDl6dTq4cOH3X2lV69ebQegxwF0hg8fPiwuXbq0fX1UePz48fbYvn//fnU3hBBCCJvIRp5MPnjwYHH16tXFmTNnuuBRJ5OPHj3qTq1+//337loQTBJ8qhyncTrZUlKwSRmuHfL8dJNTO9Xzkz1O+nSfRHALCnJ1DbQxt8/aFmXVFqgtTibfvHnzXdvrotNNUtWXfl02l5nPfi07+EmyjwXttGzhJ6j89dfasrnarkn917FxGRzX1ZPgs2SseVD7QScHeymPvuq4ep6PKXBP+lDGdfC6tV7FZajlufZ2kc/HvOreJwNJ94bsVfV3NDd8rmt8fA6MldPc8HzJVKG86+s2B7Wr5PqDZFESffPT50dtW9AH7frcqmPsY+p5tO/X1RY1H8iXfav+ql/1diSHkusI1UZqS2PiycdM1DlTy6KPxlF5Lq90UHL96/hDrV/7dxmrDp7n92Vf8PvVVoLyyOl9+7gA+cpzHair+6onOR3qe5veF+21xodEOZLmit93ah0hvUQdAz67vaSPGMt3JKNDWR9f2pOc3k6dNyTvFzzPdZBMSpKh2rTKdpTYyJNJEpw/f747ndLJJEEjJ3EVXo0SWPFaXDx//nz7dIuTzD6Y5ASigklx79697bq3b9/u7jEpnj59un2foHbuxBjrE9mvXLmyyv0eyhBQczKpU7y5IAtBu/rWPeEnxPT35MmT7xaYqDLjRLintv/8889uLBkrbwO7YucKi/vGjRvdZ8ZY7VBf44v+jA3lkI97W1tbi4sXL3b1WjB2aouyFeoqn4ca9ABk9n74y7hJF80H1UX+69evd5/Vj/Lu3r3b2dY3I2x78+bN1dX/wGn5aTyntUNzj3zZZ2juYzfkF8hy69at7X6oy7WDHsoXQ/bS3FGey439uPfu3bvVnW824N6nT59Wd8bLMTf4/OLFi1XuYvHs2bNunMdwmyMbPkbyYkN00xgxDj6fad83FNDcICGTYE1529hWdgLquX9hbmgdIpePC3l9a3AM77PFkN8B2UJ6uo6CPOU72FLzh/whaFf6tsqyDmUvbKn1jnzuH0hj68XBrn2+mLZdB/5ywAF1jfJ2TfdlC8rTtmxYGfK1kl/tI5PrhM7KwydWxvYc/O/nz5+3r0F66vAGebRXSBcFaevoOQR15PNbjOWPMWUNKw89vC+CQR9j6vl6qmOAbXy+kLCh769HiY39H3AIKBVECibrqVOnVlc7qRNiCtpMfdPBQTFhBAuJ7+whi4JcIKid8wp2Sp/0h65aqB5gO0zOMWjHn4xI7lTQz096WWg4NMECkXPS9xk5Da3g2HwjYtHTD0GTkL1wXOgMKkfQVaE9t1MfChyQD1oB6zqw+IW+cgEaJ/VT7YGj0CYCjJnKVrjvARCyInOd88wBxtDHiJN7+upjaJ04ODq3LzL5nOZhjrbG6LMX89g3tsuXL29vMPpLkKS5gK7YBDk0B6eWI5+HFYF9WoG5g1OnHdmcOuoDkJ8xIYjVOLg+zG3uScYhkI1xE8x37OR1fY0zz16/ft19pk//3jAye7A9FW1i6NSiruEWX7586f72zWvp05e/V2AfjZvWBmPEesI+bi/sTiA/Ba1x4b5Ybatf/ipooIyvUa0j/soWqicbVoZ8bfUtzO0hH+Ag39R9bgh0l47owrUOcNbRc4gxnz91T2gxZw1rrcg/+xi7r2uhfUn2AF/XR42NDSb74OmpBZP59OnTq6tp6Kmh0tcOzlYBWevpiMmmfBZvi74+Ka+6pL0CmfRUpIQTcAjE1e+Yg+LJtMJCw1n7IhWtTcU3UjnoWk4b21hAIJDb7YeD2AtOnjy5+vSNOjewhzuiWn4ID4Bw7vV0lrlCkkMTQ4GiZHEH1oInahxbPekn4JAN6Xtdqv70o/Z8TbDRoBcbmOYCzhebuE2nlvNNvy8wF5RDHmxfH9Kq/KwNBW51HDRnp26a+AzZorZVqfNM9UhDG1gfCihaD6UwtIYd/G/1Hw6Bd18+voc5NUX/dfH2qi9hvazjD4Z8ccufQZ8+2L2vrTGqr5XtSOusTcqus89NxW2xGz3FmM+fuifUvcCZsoZVD7v5A2A9sJKvkA9qUccQm/sD+1HiUAWTOKnWqRiDibM4d+7c6s44bHL1qUG0nvrZZOsrsAoyKN+f+sRQn5RXXaWxgGAvQCYWqPoce+rzU0vA9mySfqLjtBYaC5ixJJDkKY3AwKEtHMLYxuYgt9uONPakPYUaKNS5gT3cqU4NLMADIAKEejrLBkCqG2HfAxUoOB8CB4lD86dsIKBgI5X9WhvQGK4/zh/Unq8JdJBzRl6CEMacNewOd2o5YA4QaOIjWl+bEGwoyIMd6mZTx88fUus4aG5PfYDwV69KfcGJzzP0d/8wNr4t2BhbPgvG1rBDGU6Y+8D2fTrhQ2X7asvd4u1Vn8Mc6gv2Wgz54pY/g5Y+lFUgp3bWofpab2dqe+vuc+sgW+xWTxjz+evsCXUvcKasYa/LusA/Qw0C5Sv65jvUMcTmNSg9KhyqYJJjZSYUm56Do2ACDQ1qhYnRmpg4Sj9BwQGqP58EUxxvpa9Pginvs4JDIO0X/vSEfR0Wn16PsfDI9ydDgiCcb3VWjAXjou8UgdsPO3MyRP0a9HFvnUBGr3zkGHaLB7cEHMwt0Di5E3V7sMn7kyxjNiYTdWiXv635K7tqDIB14IGZg3z+OqwF9u177eebLoHZFPrsBa6Tv4bGqSqP+jht2cBPkqaWA05Z0YsxaX1tosK8Q1/ZFrldF9Y97VOOcaCsAmRgbveNW4XgdmxcvG3G0WVRQMt8YvzWgfLo1vdwRX5rDVf00FMfQkRdD5X6qn83+DpUkIr8euvhewR2H3q4cLB5ny/max+0reCCv4xZa426r1OgUvetypCvZfzm2G7OPteH27X1ADxVzxa0NeTzx/KnsO4adt+tB38f4+rrKtqXNF+grusjxTL6PlQsB5RHjR1p6QhXud9YTpivy6fw1dXXLn85YbrPywnZ1aEdsZwQXRJ8VtuqB7Sr+5ThGiSTt7lun5RX20qCdlyOqWADyejQlmxW7elyqT7Xyndbc7/KRRn0FapH8jFRv24DoD/vQ7ZzKONtAdfeF8ntLVw/qO3z2cei2q+Ok+sKlFfemB4guas+3nZrjCq1TCsBf70vPruOjKfK04/qAZ+rvtwbspfuk2hP84XPbh/yJZd04e/UcoLrobVS9R3Sn1TxPO+nJQv5LrvsqaR+NTfcjpQVyvc8tet1akI38uuYcC0b0la1F3XrOFO+tu+JNvnr+gL3aEv1RctegjaGbCu7ck/J26n2cpmG9FC52jZJ1PpCMirJft4WcmOnalugXfJ8jrjcQH3lqT1QXUc2cLvQts8r78vtDdxzOZGFMi4D/YohPb1OTchHWddVsouxfKfqCJR1XdQ3yfWuY0jyfmu+99MaA6jzxW121GiPSAhL+hbIXrGJiwuZ3PHsN3KM7vTnIEfXYihvtxy0vcaoG89hYGhznAub5F6uLdryjdcZytsP6Guvx5jA4EfOm/32tbsF2+z1GO+F3wubw6H7H3DC0UBH/32v3o4L/N+QSyc96VVpGIbXUsvNadIr7hBCCHtHgsnwQ+D7eARRxx2+Rzb0PzRMhWB0+XC4utrJUN5Rgv/56OzZswnMl/B/be/lgxpt9f2f4EN5hwW+V9j3XdCwP+CTslaPDic4nlx9DiGEEEIIYS1yMhlCCCGEEGaTYDKEEEIIIcwmwWQIIYQQQphNgskQQgghhDCbBJMhhBBCCGE2CSZDCCGEEMJsEkyGPYffZj1x4kSX9uNH7fltVf1GKn0d1R/OD8cH/hF/rRnSYcDXYQj7DfNN68N/XztsBvl3JsOewS+Q8I9GA79Esl//IK33A8+fP9+XX9IhUL1x48Z3/+A3G//Fixf3VcdwfFDwuLW1tbhw4UL3edPRGsz2EfYb+WHm2/v371d3w6aRYDLsGdeuXVvcunXrSP1EIqeet2/f3vHrGHoq5lczQtgNzKUzZ84cul9f4UTy9evXh/6Xb8Lmw8NWHtw3nwN7zc2mrCNqJYIPUV/z1GNsnoQ9nyT4rN96rnj52maVSVRZSN6+v8YlIVurDkmvgejb71ewhefTB7T0bunaet1Lm/4ayvWtthDr6u55L1++7P56PvIP4Xq7TG4v16ulJ9foWW2sJBlcf597Qzx9+nRx79697Tb4++TJk8XNmze762pj2pZN6tjVMVWb1Hd50EO2qO1rfGrbSmqnjqP6rqhctYfqCZcJ1L90rXJWHbG9y6B5JDR2rTJ9tgBvl7LeJlCHe5JTVPso0T5J+vp9UeVQW9K1Qlm1Q3IdX716tTh9+vSOfMnaulepenjbbhuNxz///LOjvJJs7DpTvw8CSf8ZUHSsc6iOuffn9vM+PQk+Vz0F7Vc5ufb2ax1ozYsqh6CMdFFe1bWPapc6dySHks8hrl0+6VptoUS7JPRwXbw/GOoTqh28vuaRJ1Hzqp6SX/muWx+U4USSn0pVvTre9KM8khiSp9pwSBYfdyW3mduTz4L+/Bo0j0Dj5NCGZKGuyywkO1Df7UH5ap+D4kC/M8nrSA5CSQ8fPlzd/WYcXhvymkf5bNhuyC9fvmy/VqHcFKivNnmyoU1NAgx+5cqV7f7u3LmzYxDUFwm5OXEDZCXA8HoMKK+ndA/ULycOyMGmoXx0r5OM43vVoW+BjG63udCf5JYt+hbQkO68bqA+ecjLuIHsev/+/e266In8fWghqTxtkLAXpzW6Dz4XHNpAHuCkkPLI7DrwRIv+Pt7Q16bDuPIb4o8ePequcWpct15H4iToV3nVjtgOkIc2aKsFY3P37t3V1U5kb1DbtIWt+cxJETb09YR96Ftj5Hz+/LmrrwcBQA/uQasODI3rGLQpWwju0eebN29Wd74F8tyTDMxDfstcMB/RjZNwlaG85jX30It76OkMrVdgDDQHyeOBom+9+JhUmGPUVV+0he5qS2OjfOaJ2tO9PtBv6jhr3v7yyy/b7TI/5VtYO+usO+x6/vz51dU4+Fbko13Z0+XEj6pf8ivoqXz0qP5TuD+AqfMCPYd8NG2636f+FP/hqN/r169312rf+2RMxtjN3J3SJ3JqXmAjZ2gf9vlEqmuGuSkb0u/QuhGMD7b/+PHjdrvMJe0d+CrPQ17l4bPrnAP0w5eoDrJoj2vx6dOnrl3K+twC+vK2GF8FiwcB6xaZmIvohY7M4x/BRvwPOM+ePeuciW/QDDBPv4JJNRRxMzH1dKDJxOJSmywCYCNngjMA/pqSzZt7DEgL9U17/mrn0qVLo9/jYAN88ODB6mrRORMmnfdF3ydPnlxd7T3ILFtgAxZ+3WD7kO4aJ71uoD3a8cXjExk90csdioPTI/gUyEjbjJscIxC44DAq9Et/1eFVsDP29gCtBiZDICOy0g51+hwP5XyccS7i3Llz3V+NOWXl3BycAvrIxg4bAfYfowa8tMV1K3jFUSpf40hAJx21bhzW126CSepWPVhD9ImdBWPGPa0vgkafT5qPoE2O0zLuw7t377bz0XMdsIfmIHbk+u3bt921MzYmzBc2WNFqyzdlfUWkbkju3xTErDPOzDVfay2mrrs+HzkEY6g5LXlbc6sPtxF6MDcqLX8wdV5M8dHu9+v+NAWCG/rFDvJJvgfJ9n3+ciro35q7U/tkrE6dOrW62knfPoztsbN/xQldZXPAZhr7dXSlXZfZ/QT9eR7jrDHjvuYcctMOcM/3bB6K8Ct9sAbUToU+XGdsva6vGYJ1W+OaigJl1is27pN1v9mY/5ubJymHVz8+4Gxw/lqlgkH15MBEkzPG2TMQOGN36ppYQgMgB0c7GkSeqNwRM6ieNwXKqU7tmwXFvdYkwAb0rbpDuMwkd7gsMM8bWjxDumPbqe24PhoHkjujvgCaMirvAYZAH2Rb5ykMG6vNqeMGcsgaN3ceoAXPdys9jzmo/uqY0ybzkTzqM1Z87vsemgKIvhPLitpT8rng4ChZezhoTg0Ae6MHMtcHDm3Y7sCFO76qr1Agqq8JCOYRATd2pg8SmxGbms8x36CQU+1okyMI0HxBH/KZh62gaB1aa3PqmNSNeUyelu3cv2FnbcJj4yy/w1zTRj7E2Lpz6tqtsvi4Ia/n7YaWz+jzB+vMC9mK1Dd/BfvTVGQXZKzrps6ruub8IWIdn+XUPob6REbGrW+uDO3D1JOspLH5M2bjPup68r2FteFoPmM7+Tdg7arO2AkpNuHQqA+1Q6rrb2hNADby/ArBoU49Kau4xtH+RNv+MHjQbEwwWZ0r0T0TQeAkpixgFoo/HbAxazCYUBqMOqhMGJCjYqKrHmWZcJRhEiKL8jxAHYJyqqOkRc1To+vqIC/9q84QLjMJOwjyXIahhdynO7CZK0+JwEO6+GmD29THwR8SWqcTOAcCDpWnz8qcpzC3Y5VjDG0CBIwVLXgCQT09snky39Qnfx3mEUE6edRnrPiMo65zgXZxkq0Arg+156nlaBgj1hWBHI6P+aZ5gxz+lE3Z6pQdd3xVX6AeDrHqoXnCWKI/GxZlceBajypDEEAbegDTpoec1CdxHz3Qh3yCZdWfS62/zpjUgJy29PCMrDUf2/WdDEk/1RkbZ6155pqC3z6mrDunrt0qC3IC+uJDFBCTdkPLZ/T5g3XmxZCPrvi6GGNobdd5VcfebTZ1r6nUPob65NRW49ZiaB+mnmRVGlofLR9RQa5ajrkvGeVv1R9zwMHHc582mIP4DeYAa1d1sHEf2Ir5ojdLFcbT/Z58p+hbE6Lup0NQtjXv0Ac96avv9PIg2Ihg0jcIwWDrVRvGYjLUE6EWGnyOrjFsXTiAI2FQ3fC8gmAwWs6jOi93CH0bq0MA4qd7Fde1Qvt1gcxFDgM7T1nI4LprnFo2Beznr4qGbAq1PJuZ2vaTavp0kJ0xmPoURv/0pe89VvSUOgROFob6ZIyrfaR7ffXImLfmDu2jH3NeMJ/ZSPrsWNErOl9PfeCEmBeyEcGi5iL3/CGPNpmLCuDWhfotx80ck5PVCRJlWw8p6hsZPbBHTs0Z7qOHgqH6lmMK9K8xwI5cI5vgesqYSBZR2yIIct/AXMQWfTZmbjE/GLN1xpl1xpwbY2jdianzsKIHA5/bU3H/iC4e6A75g6nzYsxHg+8X7rOxP/6jzy8KX9tab97m2NhPpW/uTukTG/i6cmgT+Vv7MPeq36pgM9mo9ovvd7mE8ikvqow+H/2rS7TZh/wN+Kv4in81oQ8F1+iGrfcL1mMrkNcDPoE7ZeQPGIuxfW0v2YhgkgmDY+bJQce9XDNBMQjGGnp6ANVlklCXNjEu12qTSaGFgBPB8MpjIvjrRRaG8mhbGwcOgbrKG5pkgjpsGqpDUkDKZ5fLqRvPbnD74gRxKn306a5xcpuS5CCwn9um2rRSy/PkTj+MG45H933jEEPttqA8T9Vqk9RyXhWcGGWnzEHsg10JHPmM3OrLg7KxTYOAzQPNvvnRBzZEVl9PpFbQwVhrk9fmqL7qyQ26tTbsqfQFopw0aD0gO/34mGMrP70jD7l9XSCnHK3u8/ADrdONMZCBMcBuvgbE1DHBXj4PaAtZ1BZzHd2Vz2aoAEegv8aSz8iCHdcZZ2Sl7tBmP2XdCezT+g5pC+Rk7OmfdrErn9eB4EFyYR9kdfr8wdR5MeSjBetBeT7+mps+P/rwtV39X2vs5zA0d4f6RF9Sa41P2YexJWXUNsnnm88B5pl/JQEZ/EHGoV2fl8wFycg88H2cMRTk6T79yv8wbr7m+iAYpW1vX/OWv+iGnaUz94bWzBxcb+SvPgcZ6VP+gDLy45xiSt4D4WsIIRwilg7z69JJrq72Htpfbsirq9DiIG3ENrUMYlZXBw99D22V2AF7bAKbOneHbDRm3x8FMi8D8dXVTobyNgV85EHKuDHfmQwhhCnwfcW+V3HhYOCUbz9f6R0WOAXmVG03J/bHHb62wOlp2Ds4NeX0dcrbk70iwWQI4dDAa0uCmHX+jcOw9/BK7erVqzu+y3Yc4fXiXryaPs7w6v0gg56pDMm1qTILZEPGgyQ/pxhCCCGEEGaTk8kQQgghhDCbBJMhhBBCCGE2CSZDCCGEEMJsEkyGEEIIIYTZJJgMIYQQQgizSTC5hH/eYuinl/rg3xjzX0ngX6lv/fpEOFgYzym/bhNCCCGE3ZNgchfwb4z5zzLx765xL/xY+AeV+QmsEEIIIew/CSZ3Cf8wKP9UJ+mg/5HQ0Eb/oPLQ7xCHEEIIYW84sGCSEzzf3PnMaZ6or4j1c0Dc08mfJ/3yAn/9Pr+QAfzl2uv7K2lQHj+mzq9q8Lm+7pacSi5jvUYW70MytOqKKr+S9AA//SRVkNnzZWde9fa97uW+13FqnstdZfH2q76So9YhyU4aAyXVEdU+3l9tV3MCLl++3P0IfwghhBD2lx9yMknQcePGjdXVMLw21skfbG1tdZ/5LVQCDwJB5fP7nleuXOnKiVu3bu2or2CEuhcvXuzuP3z4sDvJUhkFlAQ6yPnhw4cuj76p04KyyOKcPXu2k4m6tMFvkLZQ3yrnEDChk/Lv3LmzHYgJfs5LdqHPMRSoqk3/WTTs8+rVq+085EdnD27VF4nXyQo26dvraYyRj3vITuIz92iTttUeulPH+/r48WM3PqovkNPtgg7O6dOn8zNnIYQQwgHwQ4JJggAPDObCyROBhuD3KAlI/CSNwEgQzOmauq0fl3/8+HF3SklA8+zZs05OXpsCgS0BUz09A4Ii14kylNXvd9LGuq/B0QN9kEncvXu3u+cBF9cnT55cXe2EYM9P7wBZvE2CLoIvoLyf6CE/erx7925153vUN0GdOHfuXPfX5ay8ePGiCwL1PVO9nua+oL5kW4dTp051dgkhhBDC/nLgwaROlG7evLm68z8IyBT0TD255DSwBkt9EGAIAii/Fgocv3z50v2twVgrQOEkk6D20qVLqzvfqCeIc6gnjVU+Ak7K6H5FJ4E6vdOpK8GudEJO/9H6GpiS/+nTp9XVznHyYNvbrHL3oa8XKHHtcK3A1FEw3FdPDAWzIYQQQtg9BxpMcuJFcOanYo6/Pm2dGrbQK1BPff9H9efPn1efvlGvQcGHAioPxpQ88OK0k8CU1+6VvXjNWoPXKt/bt28nB6288pdM6CB9CAb9u6IKVIWfXIKPE/Lwipyg1r8SMPVUkABXbSnJljphbgXK9Mtckiz1NbfoC7JDCCGEsDccaDDJ6RGb/15BcFS/p1jx/2Hj/v37i9u3b3ef+Vu/nweUJzAhCOH0lICllnHQyV+lC07TCKj0Spw2PGCbgl6ruw6PHj3alg/QHztMgWCeU2GCNP+fVRyCZ28P+dHDA2inBsySy19V98E/4YP9FDRWCNT9qwNOfUVe4UHBT0c5vezTOYQQQgjzOdBgklPEvs1/DgQ4tKlXnUoO/1ev7nOCp1Mv/nL6ScBBQEZQQxmCIX23EVlVRm2QPLgkv3X6xT0CZwJW6tBG34nsEARr/qqdviUf1wRbfYEeeF1ABvTif2zRfcqoTfKxk/KQn5M/x19zy6a0iSy6T/tjyEbeHongksAb3ftsNhZE81p+6oltCCGEEOZzYhko7IwUjggEXQRwnKq1gj2HE6vXr1/n34k8QhCM8iDR+vpBCCGEEPaOH/J/c4ewn/AgwUkzr9FDCCGEsL8kmAxHDr5PySv3sRPpEEIIIeyeI/uaO4QQQggh7D85mQwhhBBCCLNJMBlCCCGEEGaTYDKEEEIIIcwmwWQIIYQQQphNgskQQgghhDCbBJMhhBBCCGE2CSZDCCGEEMJsEkyGEEIIIYSZLBb/D9qaf/LjKRO3AAAAAElFTkSuQmCC;" vertex="1" parent="1">
          <mxGeometry x="190" y="30" width="659" height="117" as="geometry" />
        </mxCell>
        <mxCell id="p8ZuzaAaolSNh7NrDxlR-2" value="клиент" style="shape=umlActor;verticalLabelPosition=bottom;verticalAlign=top;html=1;outlineConnect=0;" vertex="1" parent="1">
          <mxGeometry x="310" y="450" width="30" height="60" as="geometry" />
        </mxCell>
        <mxCell id="p8ZuzaAaolSNh7NrDxlR-3" value="&lt;u&gt;:интерфейс пользователя&lt;/u&gt;" style="rounded=0;whiteSpace=wrap;html=1;" vertex="1" parent="1">
          <mxGeometry x="540" y="270" width="120" height="60" as="geometry" />
        </mxCell>
        <mxCell id="p8ZuzaAaolSNh7NrDxlR-4" value="" style="endArrow=classic;startArrow=none;html=1;rounded=0;startFill=0;" edge="1" parent="1" source="p8ZuzaAaolSNh7NrDxlR-2" target="p8ZuzaAaolSNh7NrDxlR-3">
          <mxGeometry width="50" height="50" relative="1" as="geometry">
            <mxPoint x="490" y="350" as="sourcePoint" />
            <mxPoint x="540" y="300" as="targetPoint" />
          </mxGeometry>
        </mxCell>
        <mxCell id="p8ZuzaAaolSNh7NrDxlR-5" value="" style="endArrow=classic;html=1;rounded=0;" edge="1" parent="1">
          <mxGeometry width="50" height="50" relative="1" as="geometry">
            <mxPoint x="390" y="410" as="sourcePoint" />
            <mxPoint x="470" y="360" as="targetPoint" />
          </mxGeometry>
        </mxCell>
        <mxCell id="p8ZuzaAaolSNh7NrDxlR-6" value="1.ввод данных для регистрации" style="text;strokeColor=none;align=center;fillColor=none;html=1;verticalAlign=middle;whiteSpace=wrap;rounded=0;" vertex="1" parent="1">
          <mxGeometry x="340" y="330" width="130" height="30" as="geometry" />
        </mxCell>
        <mxCell id="p8ZuzaAaolSNh7NrDxlR-7" value="&lt;u&gt;:контролёр&lt;/u&gt;" style="rounded=0;whiteSpace=wrap;html=1;" vertex="1" parent="1">
          <mxGeometry x="840" y="270" width="120" height="60" as="geometry" />
        </mxCell>
        <mxCell id="p8ZuzaAaolSNh7NrDxlR-8" value="" style="endArrow=classic;startArrow=classic;html=1;rounded=0;entryX=0;entryY=0.5;entryDx=0;entryDy=0;" edge="1" parent="1" source="p8ZuzaAaolSNh7NrDxlR-3" target="p8ZuzaAaolSNh7NrDxlR-7">
          <mxGeometry width="50" height="50" relative="1" as="geometry">
            <mxPoint x="660" y="300" as="sourcePoint" />
            <mxPoint x="710" y="250" as="targetPoint" />
          </mxGeometry>
        </mxCell>
        <mxCell id="p8ZuzaAaolSNh7NrDxlR-9" value="" style="endArrow=classic;html=1;rounded=0;" edge="1" parent="1">
          <mxGeometry width="50" height="50" relative="1" as="geometry">
            <mxPoint x="690" y="290" as="sourcePoint" />
            <mxPoint x="790" y="290" as="targetPoint" />
          </mxGeometry>
        </mxCell>
        <mxCell id="p8ZuzaAaolSNh7NrDxlR-10" value="2.отправка данных пользователя" style="text;strokeColor=none;align=center;fillColor=none;html=1;verticalAlign=middle;whiteSpace=wrap;rounded=0;" vertex="1" parent="1">
          <mxGeometry x="680" y="260" width="110" height="30" as="geometry" />
        </mxCell>
        <mxCell id="p8ZuzaAaolSNh7NrDxlR-11" value="&lt;u&gt;:база данных&lt;/u&gt;" style="rounded=0;whiteSpace=wrap;html=1;" vertex="1" parent="1">
          <mxGeometry x="840" y="540" width="120" height="60" as="geometry" />
        </mxCell>
        <mxCell id="p8ZuzaAaolSNh7NrDxlR-12" value="" style="endArrow=classic;startArrow=classic;html=1;rounded=0;exitX=0.5;exitY=0;exitDx=0;exitDy=0;" edge="1" parent="1" source="p8ZuzaAaolSNh7NrDxlR-11" target="p8ZuzaAaolSNh7NrDxlR-7">
          <mxGeometry width="50" height="50" relative="1" as="geometry">
            <mxPoint x="860" y="380" as="sourcePoint" />
            <mxPoint x="910" y="330" as="targetPoint" />
          </mxGeometry>
        </mxCell>
        <mxCell id="p8ZuzaAaolSNh7NrDxlR-13" value="" style="endArrow=classic;startArrow=classic;html=1;rounded=0;entryX=0.442;entryY=0.95;entryDx=0;entryDy=0;entryPerimeter=0;exitX=0;exitY=0.5;exitDx=0;exitDy=0;" edge="1" parent="1" source="p8ZuzaAaolSNh7NrDxlR-11" target="p8ZuzaAaolSNh7NrDxlR-3">
          <mxGeometry width="50" height="50" relative="1" as="geometry">
            <mxPoint x="820" y="570" as="sourcePoint" />
            <mxPoint x="870" y="520" as="targetPoint" />
          </mxGeometry>
        </mxCell>
        <mxCell id="p8ZuzaAaolSNh7NrDxlR-18" value="" style="endArrow=classic;html=1;rounded=0;" edge="1" parent="1">
          <mxGeometry width="50" height="50" relative="1" as="geometry">
            <mxPoint x="770" y="480" as="sourcePoint" />
            <mxPoint x="700" y="410" as="targetPoint" />
          </mxGeometry>
        </mxCell>
        <mxCell id="p8ZuzaAaolSNh7NrDxlR-19" value="" style="endArrow=classic;html=1;rounded=0;" edge="1" parent="1">
          <mxGeometry width="50" height="50" relative="1" as="geometry">
            <mxPoint x="910" y="380" as="sourcePoint" />
            <mxPoint x="910" y="490" as="targetPoint" />
          </mxGeometry>
        </mxCell>
        <mxCell id="p8ZuzaAaolSNh7NrDxlR-20" value="4.отправка валидных данных&amp;nbsp;" style="text;strokeColor=none;align=center;fillColor=none;html=1;verticalAlign=middle;whiteSpace=wrap;rounded=0;" vertex="1" parent="1">
          <mxGeometry x="920" y="420" width="130" height="30" as="geometry" />
        </mxCell>
        <mxCell id="p8ZuzaAaolSNh7NrDxlR-23" value="3. валидация данных" style="text;strokeColor=none;align=center;fillColor=none;html=1;verticalAlign=middle;whiteSpace=wrap;rounded=0;" vertex="1" parent="1">
          <mxGeometry x="910" y="190" width="90" height="30" as="geometry" />
        </mxCell>
        <mxCell id="p8ZuzaAaolSNh7NrDxlR-24" value="5.данные записаны" style="text;strokeColor=none;align=center;fillColor=none;html=1;verticalAlign=middle;whiteSpace=wrap;rounded=0;" vertex="1" parent="1">
          <mxGeometry x="740" y="410" width="60" height="30" as="geometry" />
        </mxCell>
        <mxCell id="p8ZuzaAaolSNh7NrDxlR-25" value="" style="endArrow=classic;html=1;rounded=0;" edge="1" parent="1">
          <mxGeometry width="50" height="50" relative="1" as="geometry">
            <mxPoint x="500" y="400" as="sourcePoint" />
            <mxPoint x="420" y="460" as="targetPoint" />
          </mxGeometry>
        </mxCell>
        <mxCell id="p8ZuzaAaolSNh7NrDxlR-26" value="6.показ окончания регистрации" style="text;strokeColor=none;align=center;fillColor=none;html=1;verticalAlign=middle;whiteSpace=wrap;rounded=0;" vertex="1" parent="1">
          <mxGeometry x="439.5" y="430" width="160" height="30" as="geometry" />
        </mxCell>
      </root>
    </mxGraphModel>
  </diagram>
</mxfile>
